<?xml version="1.0" encoding="iso-8859-1"?>
<!-- Generator: Adobe Illustrator 19.0.0, SVG Export Plug-In . SVG Version: 6.00 Build 0)  -->
<svg version="1.1" id="Capa_1" xmlns="http://www.w3.org/2000/svg" xmlns:xlink="http://www.w3.org/1999/xlink" x="0px" y="0px"
	 viewBox="0 0 409.6 409.6" style="enable-background:new 0 0 409.6 409.6;" xml:space="preserve">
<g>
	<g>
		<path d="M204.8,0C91.873,0,0,91.873,0,204.8s91.873,204.8,204.8,204.8s204.8-91.873,204.8-204.8S317.727,0,204.8,0z
			 M204.8,395.947C99.4,395.947,13.653,310.2,13.653,204.8S99.4,13.653,204.8,13.653S395.947,99.4,395.947,204.8
			S310.2,395.947,204.8,395.947z"/>
	</g>
</g>
<g>
	<g>
		<path d="M204.8,27.307c-97.87,0-177.493,79.623-177.493,177.493S106.93,382.293,204.8,382.293S382.293,302.671,382.293,204.8
			S302.671,27.307,204.8,27.307z M204.8,368.64c-90.341,0-163.84-73.499-163.84-163.84S114.459,40.96,204.8,40.96
			s163.84,73.499,163.84,163.84S295.141,368.64,204.8,368.64z"/>
	</g>
</g>
<g>
	<g>
		<path d="M285.804,195.724c-0.046-0.024-0.094-0.046-0.14-0.067l-128.447-61.087c-4.483-2.263-9.719-2.036-13.996,0.591
			c-4.186,2.58-6.687,7.026-6.687,11.897v122.307c0,4.871,2.5,9.317,6.687,11.897c2.333,1.437,4.954,2.154,7.557,2.154
			c2.166,0,4.323-0.497,6.299-1.497l128.727-61.223c4.777-2.41,7.743-7.194,7.743-12.486S290.581,198.134,285.804,195.724z
			 M279.798,208.44l-128.727,61.22c-0.241,0.13-0.471,0.113-0.884-0.294l0.191-122.573c0.106-0.068,0.213-0.104,0.336-0.104
			c0.14,0,0.299,0.048,0.497,0.143l128.587,61.153l2.934-6.163L279.798,208.44z"/>
	</g>
</g>
<g>
</g>
<g>
</g>
<g>
</g>
<g>
</g>
<g>
</g>
<g>
</g>
<g>
</g>
<g>
</g>
<g>
</g>
<g>
</g>
<g>
</g>
<g>
</g>
<g>
</g>
<g>
</g>
<g>
</g>
</svg>
